# xmcd
#
# Track frame offsets:
#	150
#	14937
#	29962
#	46200
#	60600
#	76437
#	91425
#	105062
#	122550
#	136050
#	153000
#	168000
#	184875
#	196687
#
# Disc length: 2796 seconds
#
# Revision: 1
# Processed by: cddbd v1.5.2PL0 Copyright (c) Steve Scherf et al.
# Submitted via: audiograbber 1.83.01
#
DISCID=ab0aea0e
DTITLE=新格文化 - 金韻民歌經典系列2四季語言
DYEAR=1990
DGENRE=Pop
TTITLE0=鄭怡 - 微風．往事
TTITLE1=施孝榮 - 拜訪春天
TTITLE2=劉宗立陳淑惠曾佩媛 - 小雨中的回憶
TTITLE3=王夢麟 - 雨中即景
TTITLE4=林佳蓉許\淑絹 - 守住這一片陽光
TTITLE5=鄭麗君 - 雨中別離
TTITLE6=陳明韶 - 下雨天的周末
TTITLE7=王新蓮馬宜中 - 風中的早晨
TTITLE8=楊耀東 - 季節雨
TTITLE9=王海玲 - 我心似清泉
TTITLE10=陳明韶 - 風！告訴我
TTITLE11=齊豫 - 走在雨中
TTITLE12=齊豫 - 春天的故事
TTITLE13=木吉他三重唱 - 生命的陽光
EXTD=
EXTT0=
EXTT1=
EXTT2=
EXTT3=
EXTT4=
EXTT5=
EXTT6=
EXTT7=
EXTT8=
EXTT9=
EXTT10=
EXTT11=
EXTT12=
EXTT13=
PLAYORDER=
